# xmcd CD database file
#
# Track frame offsets:
#	150
#	18115
#	28347
#	42003
#	55596
#	65135
#	76078
#	90263
#	103191
#	116234
#	128434
#	140746
#	155896
#	170050
#	185354
#	201344
#	211991
#	225424
#	241226
#	253151
#	267340
#	284308
#	296752
#	309196
#	324224
#	339517
#
# Disc length: 4736 seconds
#
# Revision: 0
# Processed by: cddbd v1.5.1PL0 Copyright (c) Steve Scherf et al.
# Submitted via: CDex 1.51
#
DISCID=75127e1a
DTITLE=George Strait - 50 Number Ones
DYEAR=1900
DGENRE=Country
TTITLE0=I Hate Everything
TTITLE1=Fool Hearted Memory
TTITLE2=A Fire I Can't Put Out
TTITLE3=You Look So Good in Love
TTITLE4=Right or Wrong
TTITLE5=Let's Fall to Pieces Together
TTITLE6=Does Fort Worth Ever Cross Your Mind
TTITLE7=The Chair
TTITLE8=Nobody in His Right Mind Would've Left Her
TTITLE9=It Ain't Cool to Be Crazy About You
TTITLE10=Ocean Front Property
TTITLE11=All My Ex's Life in Texas
TTITLE12=Am I Blue
TTITLE13=Famous Last Words of a Fool
TTITLE14=Baby Blue
TTITLE15=If You Ain't Lovin' (You Ain't Livin')
TTITLE16=Baby's Gotten Good at Goodbye
TTITLE17=What's Going on in Your World
TTITLE18=Ace in the Hole
TTITLE19=Love Without End, Amen
TTITLE20=I've Come to Expect It From You
TTITLE21=If I Know Me
TTITLE22=You Know Me Better Than That
TTITLE23=The Chill of an Early Fall
TTITLE24=Much Like My Dad
TTITLE25=I Cross My Heart
EXTD=
EXTT0=
EXTT1=
EXTT2=
EXTT3=
EXTT4=
EXTT5=
EXTT6=
EXTT7=
EXTT8=
EXTT9=
EXTT10=
EXTT11=
EXTT12=
EXTT13=
EXTT14=
EXTT15=
EXTT16=
EXTT17=
EXTT18=
EXTT19=
EXTT20=
EXTT21=
EXTT22=
EXTT23=
EXTT24=
EXTT25=
PLAYORDER=
